<?xml version="1.0" encoding="utf-8"?>
<!-- Generator: Adobe Illustrator 25.3.1, SVG Export Plug-In . SVG Version: 6.00 Build 0)  -->
<svg version="1.1" id="Capa_1" xmlns="http://www.w3.org/2000/svg" xmlns:xlink="http://www.w3.org/1999/xlink" x="0px" y="0px"
	 viewBox="0 0 1080 1080" style="enable-background:new 0 0 1080 1080;" xml:space="preserve">
<style type="text/css">
	.st0{fill:#FFFFFF;}
</style>
<g>
	<g>
		<path class="st0" d="M460.5,310.7H519l26.7,177.7h-62.7l-3-23.7h-61.7l-15.4,23.7h-64.3L460.5,310.7z M476.6,422.9l-4.8-42.8
			l-27.5,42.8H476.6z"/>
		<path class="st0" d="M658.1,310.7h58.5l26.7,177.7h-62.7l-3-23.7h-61.7l-15.4,23.7h-64.3L658.1,310.7z M674.2,422.9l-4.8-42.8
			l-27.5,42.8H674.2z"/>
		<path class="st0" d="M794.9,312h58.2l21.2,62l54.4-62h64.8l-47.4,176.4h-58.7l23.4-87.4l-57.5,62.7h-1l-23.7-62.7l-23.4,87.4
			h-57.7L794.9,312z"/>
	</g>
	<g>
		<polygon class="st0" points="199.7,691.4 199.4,692.5 199.8,692.5 		"/>
		<path class="st0" d="M729.6,677.6h-20.9l-4,14.9h26.7c6.8,0,13.2-0.3,19.4-1c-0.1-3.4-1.3-6.5-3.8-8.9
			C743.7,679.4,737.9,677.6,729.6,677.6z"/>
		<path class="st0" d="M731,628.2l16.2-60.7h9.8c14.1,0,22.9,3.3,28.5,8.8c4.5,4.5,7.3,10.8,7.3,20.4c0,10.8-5.3,22.7-12.6,30
			c-2.4,2.4-5.3,4.6-8.5,6.4c10.9,3.2,19.2,8,25.2,14c6.9,6.9,10.9,15.4,12.7,24.6c5.1-3.5,9.9-7.4,14.2-11.8
			c6.3-6.3,11.6-13.2,15.9-20.6l3-11.2h2.6c4.9-11.8,7.5-24.5,7.5-37.8c0-21.4-6-38.6-19.2-51.7c-13.4-13.4-34.8-22.7-69-22.7h-62.5
			L672,628.2H731z"/>
		<polygon class="st0" points="196.1,628.2 256.6,628.2 258.3,692.5 258.4,692.5 305.8,516.1 246.8,516.1 229.9,578.3 176,578.3 
			192.9,516.1 133.9,516.1 86.5,692.5 145.5,692.5 162.4,629.3 196.2,629.3 		"/>
		<path class="st0" d="M481.3,692.5l45-65.5h58.5l9.9,65.5h50.9L621,633.8c34.8-10.8,49.1-34.5,49.1-62c0-13.9-4-27-13.9-36.8
			c-11.8-11.8-32.5-18.9-65-18.9h-68.8l-47.4,176.4H481.3z M568.1,565.5H589c8.3,0,14.1,1.8,17.4,5c2.5,2.5,3.8,5.8,3.8,9.3
			c0,11.1-10.3,20.2-30,20.2h-21.4L568.1,565.5z"/>
		<path class="st0" d="M271.2,692.5l38.9-64.8H361l2.8,41.1h27.8l22.8-40.6h46.8l-17.1-113.4h-58.5l-122,177.7H271.2z M397,584.1
			l4.8,42.8h-32.3L397,584.1z"/>
		<polygon class="st0" points="470.8,692.5 464.2,648.7 438.3,692.5 		"/>
	</g>
	<path class="st0" d="M417.1,633.3l-46.2,82.2l-5.6-82.7h-49.4l-49.7,82.7l-2.2-82.2h-58.7l9.8,172.5h49.9l52.8-85.1l7.3,85.1H375
		l102.3-172.5H417.1z M525.7,632.1L407.3,804.6h62.4l14.9-23h59.9l2.9,23h60.9l-25.9-172.5H525.7z M510.1,741l26.7-41.6l4.6,41.6
		H510.1z M801.9,687.4c0-13.5-3.9-26.2-13.5-35.7c-11.5-11.5-31.6-18.3-63.1-18.3h-66.8l-46,171.3h57.2l13.2-48.9h14.2l19.1,48.9
		H778l-23.7-57C788,737.1,801.9,714.1,801.9,687.4z M714.6,714.8h-20.8l9.1-33.5h20.3c8.1,0,13.7,1.7,16.9,4.9
		c2.4,2.4,3.7,5.6,3.7,9.1C743.7,706,733.7,714.8,714.6,714.8z M966.4,680.3l12.7-47H833l-46,171.3h147.3l12.5-47h-91l5.1-18.6h83.7
		l11-41.3h-83.7l4.6-17.4H966.4z"/>
</g>
</svg>
